<svg xmlns="http://www.w3.org/2000/svg" width="20" height="19" viewBox="0 0 20 19" fill="none"><path fill-rule="evenodd" clip-rule="evenodd" d="M11.6125 0.876662C10.6812 0.0905911 9.3188 0.0905923 8.38749 0.876662L7.53932 1.59255C7.14349 1.92665 6.65365 2.12956 6.1375 2.17321L5.03155 2.26674C3.81717 2.36944 2.85381 3.3328 2.75111 4.54717L2.65759 5.65312C2.61394 6.16927 2.41102 6.65911 2.07692 7.05496L1.36104 7.90311C0.574966 8.83442 0.574967 10.1968 1.36104 11.1281L2.07692 11.9763C2.41102 12.3721 2.61394 12.862 2.65759 13.3781L2.75111 14.4841C2.85381 15.6985 3.81717 16.6619 5.03155 16.7645L6.1375 16.858C6.65365 16.9018 7.14349 17.1046 7.53934 17.4387L8.38749 18.1546C9.3188 18.9406 10.6812 18.9406 11.6125 18.1546L12.4607 17.4387C12.8565 17.1046 13.3464 16.9018 13.8625 16.858L14.9685 16.7645C16.1829 16.6619 17.1462 15.6985 17.2489 14.4841L17.3424 13.3781C17.3861 12.862 17.589 12.3721 17.9231 11.9763L18.639 11.1281C19.425 10.1968 19.425 8.83442 18.639 7.90311L17.9231 7.05495C17.589 6.65911 17.3861 6.16927 17.3424 5.65312L17.2489 4.54717C17.1462 3.3328 16.1829 2.36944 14.9685 2.26674L13.8625 2.17321C13.3464 2.12956 12.8565 1.92665 12.4607 1.59255L11.6125 0.876662ZM14.546 7.81117C14.9854 7.37184 14.9854 6.65952 14.546 6.22019C14.1067 5.78084 13.3944 5.78084 12.955 6.22019L8.75054 10.4247L7.04604 8.72019C6.6067 8.28084 5.89439 8.28084 5.45505 8.72019C5.0157 9.15952 5.0157 9.87184 5.45505 10.3112L7.95505 12.8111C8.39439 13.2505 9.1067 13.2505 9.54604 12.8111L14.546 7.81117Z" fill="#3ED37A"></path></svg>